# xmcd CD database file
#
# Track frame offsets:
#	150
#	14287
#	24670
#	46345
#	62115
#	79205
#	91477
#	107559
#	124769
#	142987
#	156444
#	176387
#	191862
#	208382
#	216332
#	231819
#
# Disc length: 3283 seconds
#
# Revision: 0
# Processed by: cddbd v1.4PL0 Copyright (c) Steve Scherf et al.
# Submitted via: CDex 1.40Release
#
DISCID=e60cd110
DTITLE=Truck Stop - In Concert
DYEAR=122002
DGENRE=Country
TTITLE0=Amanda
TTITLE1=Die Frau mit dem Gurt
TTITLE2=Johnny Cash Medley
TTITLE3=Du bist der absolute Wahnsinn
TTITLE4=I'm a Nut
TTITLE5=Freizeit Cowboy
TTITLE6=Good Hearted Woman
TTITLE7=Angel entspannt
TTITLE8=Old Texas Town die Westernstadt
TTITLE9=Take it easy altes Haus
TTITLE10=Cowboy bei der Bahn
TTITLE11=Blue Grass - Medley
TTITLE12=Ich möcht' so gern Dave Dudley hör'n
TTITLE13=Square Dance
TTITLE14=Nastrovie
TTITLE15=Der Traum vom großen Abenteuer
EXTD=YEAR: 122002 ID3G: 2
EXTT0=
EXTT1=
EXTT2=
EXTT3=
EXTT4=
EXTT5=
EXTT6=
EXTT7=
EXTT8=
EXTT9=
EXTT10=
EXTT11=
EXTT12=
EXTT13=
EXTT14=
EXTT15=
PLAYORDER=
